# xmcd
#
# Track frame offsets:
#	150
#	12052
#	26610
#	47542
#	64458
#	77024
#	91780
#	119362
#	142119
#	157603
#	169394
#	184900
#	206385
#	231013
#	245075
#	268713
#	286502
#	301666
#	314391
#
# Disc length: 4439 seconds
#
# Revision: 1
# Processed by: cddbd v1.5.2PL0 Copyright (c) Steve Scherf et al.
# Submitted via: audiograbber 1.83.01
#
DISCID=f6115513
DTITLE=Richard Clayderman - The very best of Richard Clayderman
DYEAR=1999
DGENRE=Acoustic
TTITLE0=Richard Clayderman - Balade Pour Adeline
TTITLE1=Richard Clayderman - Moon River
TTITLE2=Richard Clayderman - Moonlight Sonata
TTITLE3=Richard Clayderman - Nikita
TTITLE4=Richard Clayderman - Everytime You Go Away
TTITLE5=Richard Clayderman - Strengers In The Night
TTITLE6=Richard Clayderman - Liebestraum
TTITLE7=Richard Clayderman - Rhapsody In Blue
TTITLE8=Richard Clayderman - Yesterday Once More
TTITLE9=Richard Clayderman - La Vie En Rose
TTITLE10=Richard Clayderman - Tara's Theme (Gone With The Wind)
TTITLE11=Richard Clayderman - The Phantom Of The Opera
TTITLE12=Richard Clayderman - Memory
TTITLE13=Richard Clayderman - Once Upon A Time
TTITLE14=Richard Clayderman - Medley Of Four Seasons
TTITLE15=Richard Clayderman - Piano Concerto Nr.1
TTITLE16=Richard Clayderman - Piano Concerto Nr.21
TTITLE17=Richard Clayderman - There Is Always Sunshine Above The Clouds
TTITLE18=Richard Clayderman - desperado
EXTD=
EXTT0=
EXTT1=
EXTT2=
EXTT3=
EXTT4=
EXTT5=
EXTT6=
EXTT7=
EXTT8=
EXTT9=
EXTT10=
EXTT11=
EXTT12=
EXTT13=
EXTT14=
EXTT15=
EXTT16=
EXTT17=
EXTT18=
PLAYORDER=
